<svg width="33" height="31" viewBox="0 0 33 31" fill="none" xmlns="http://www.w3.org/2000/svg">
<path fill-rule="evenodd" clip-rule="evenodd" d="M17.9711 0.851154C17.6611 0.3231 17.1026 0 16.5 0C15.8974 0 15.3389 0.323101 15.0289 0.851154L7.30874 13.9997C6.99074 14.5413 6.98241 15.2158 7.28694 15.7654C7.59147 16.315 8.16177 16.6548 8.77985 16.6548H24.2202C24.8382 16.6548 25.4085 16.315 25.7131 15.7654C26.0176 15.2158 26.0093 14.5413 25.6913 13.9997L17.9711 0.851154ZM11.8099 13.1485L16.5 5.16061L21.1901 13.1485H11.8099ZM32.1409 31H0.85912C0.192361 31 -0.219478 30.2567 0.123567 29.6724L3.99111 23.0855C4.30115 22.5574 4.85959 22.2343 5.46221 22.2343H27.5378C28.1404 22.2343 28.6988 22.5574 29.0089 23.0855L32.8764 29.6724C33.2195 30.2567 32.8076 31 32.1409 31Z" fill="#9013FE"/>
</svg>
