<svg width="45" height="39" viewBox="0 0 45 39" fill="none" xmlns="http://www.w3.org/2000/svg">
<path d="M16.9026 27.6034C16.7101 27.2664 16.2768 27.6515 16.0361 27.9403C15.635 28.5822 14.7749 29.9043 14.5439 30.0584C14.2551 30.2509 13.6774 29.8658 13.2442 29.8658C12.8109 29.8658 12.3777 30.3953 12.0889 30.5879C11.8 30.7804 11.3187 31.5506 11.6075 31.5988C11.8963 31.6469 14.3032 31.2618 14.8327 31.0211C15.3622 30.7804 16.4694 29.1919 16.5656 28.9031C16.6619 28.6143 17.0952 27.9403 16.9026 27.6034Z" fill="#7F7F7F"/>
<path d="M38.1312 23.6079C37.6499 23.656 36.9278 23.7042 36.1576 23.9448C36.1095 23.8967 36.0132 23.7716 36.0132 23.656C36.0132 23.5116 35.9651 23.2709 35.6762 23.1746C35.3874 23.0784 35.0986 22.0194 34.8579 21.9231C34.6172 21.8268 33.8952 22.0194 33.8952 22.5007C33.8952 22.9821 34.7616 23.7523 34.8579 24.0411C34.9542 24.3299 33.5101 23.8967 32.8843 23.8004C32.2585 23.7042 30.333 23.4635 29.4665 23.9448C28.6 24.4262 25.3748 27.7958 24.5565 28.1809C23.7382 28.566 20.6574 29.4807 19.7428 29.4807C18.8281 29.4807 16.9508 29.3362 16.7582 29.0956C16.5657 28.8549 17.1433 28.3254 17.721 28.3735C18.2986 28.4216 20.0797 28.0365 22.631 27.3145C25.1823 26.5924 27.9743 23.993 28.1668 23.8004C28.3594 23.6079 26.8189 22.3082 26.7708 22.0194C26.7227 21.7305 26.9152 21.6824 27.204 21.6343C27.4929 21.5861 32.6917 21.5861 33.2212 21.538C33.7507 21.4898 35.2911 21.0085 35.9651 21.0566C36.639 21.1047 37.2648 22.2119 37.6499 22.5007C38.035 22.7895 38.7089 22.7895 39.0459 23.1746C39.3828 23.5597 38.6126 23.5597 38.1312 23.6079Z" fill="#7F7F7F"/>
<path d="M20.0316 18.0239C20.3685 18.6016 23.69 22.3563 24.3158 22.5488C24.3158 22.6451 24.027 22.6933 23.4494 22.7895L23.4493 22.7895C22.8717 22.8858 20.0316 24.2818 19.117 24.6188C18.2024 24.9557 14.3032 27.4107 13.9181 27.6996C13.533 27.9884 14.7365 28.0847 14.8327 28.4698C14.929 28.8549 14.0144 29.1437 13.533 29.1437C13.0516 29.1437 12.2333 29.1437 11.6557 28.8067C11.078 28.4698 10.9817 27.7477 11.3668 27.3145C11.7519 26.8812 14.0625 26.2554 14.5439 26.0147C15.0253 25.7741 17.7691 24.0892 17.8173 23.993C17.8654 23.8967 16.9989 23.6079 16.8545 23.4635C16.7101 23.319 18.3468 23.2228 18.2986 23.0784C18.2505 22.9339 16.5175 22.9821 16.1324 22.9821C15.7473 22.9821 15.266 22.26 15.266 22.1637C15.266 22.0675 17.7691 21.9231 17.7691 21.7305C17.7691 21.538 15.0253 21.538 14.7365 21.4898C14.4476 21.4417 13.7737 20.6715 13.7256 20.4308C13.6774 20.1901 17.1433 20.6234 17.1433 20.4789C17.1433 20.3345 13.4367 19.805 13.1961 19.7087C12.9554 19.6125 12.5703 18.746 12.474 18.5053C12.3777 18.2646 12.6665 18.5053 12.9072 18.5053C13.1479 18.5053 16.4213 19.3718 16.6138 19.2274C16.8064 19.083 15.6511 18.7941 15.266 18.746C14.8809 18.6979 12.2333 17.687 11.9926 17.5426C11.7519 17.3981 11.2224 16.1947 11.1743 16.0022C11.1261 15.8096 11.8482 16.1947 11.9926 16.291C12.137 16.3873 15.9399 17.9277 16.1324 17.8795C16.325 17.8314 11.3668 15.232 10.9817 14.895C10.5966 14.558 10.7892 13.5471 10.8373 13.2102C10.8855 12.8732 12.5703 14.5099 12.7628 14.7024C12.9554 14.895 15.8918 16.6279 16.1324 16.5798C16.3731 16.5317 15.1216 15.7133 14.3032 15.232C13.4849 14.7506 11.1262 12.2956 10.9817 12.0067C10.8373 11.7179 11.1743 10.6108 11.3668 10.4182C11.5594 10.2257 12.137 11.4291 12.5703 12.0067C13.0035 12.5844 15.6992 14.895 15.988 15.0394C16.2769 15.1838 15.2178 14.1248 14.7365 13.5471C14.2551 12.9695 11.8963 9.8887 11.7519 9.45546C11.6075 9.02223 12.5703 8.15575 12.6665 8.01134C12.7628 7.86693 13.5812 9.16664 13.9181 9.8887C14.2551 10.6108 16.6138 13.6916 16.9989 14.1248C17.384 14.558 19.6946 17.4463 20.0316 18.0239Z" fill="#7F7F7F"/>
<path d="M25.6155 15.7616C25.5193 17.3501 26.3857 20.5272 26.5783 21.2011C26.3697 21.1851 25.8947 21.1626 25.6637 21.2011C25.3749 21.2493 24.6528 21.4418 24.5084 21.49C24.364 21.5381 23.0161 19.9977 22.7273 19.7089C22.4385 19.4201 20.4648 16.6762 20.3686 16.4837C20.2723 16.2911 20.7537 15.0877 20.7537 14.9914C20.7537 14.8951 22.4385 17.3501 22.7273 17.3983C23.0161 17.4464 21.0906 14.51 20.9462 14.2212C20.8018 13.9324 21.1869 12.9215 21.3313 12.8252C21.4757 12.729 21.4757 12.9696 21.572 13.1622C21.6683 13.3547 22.968 15.8579 23.2087 15.906C23.4494 15.9542 21.8608 12.4401 21.8127 12.1032C21.7645 11.7662 22.2459 11.2848 22.3422 11.1886C22.4385 11.0923 23.4494 14.2212 23.4975 14.3656C23.5456 14.51 23.7382 14.6545 23.8826 14.6063C24.027 14.5582 23.5456 13.9805 23.4012 13.6917C23.2568 13.4029 22.8717 10.7072 22.7754 10.3221C22.6792 9.93698 23.7863 9.31119 23.9307 9.21492C24.0751 9.11864 24.1714 12.8734 24.2196 13.1622C24.2677 13.451 24.2196 13.4992 24.4121 13.4992C24.6047 13.4992 24.5084 9.40747 24.6528 8.97423C24.7972 8.541 25.4711 8.25217 25.76 8.05962C26.0488 7.86707 26.0488 8.1559 25.8562 8.87796C25.6637 9.60002 25.7118 14.1731 25.6155 15.7616Z" fill="#7F7F7F"/>
</svg>
