<svg width="45" height="39" viewBox="0 0 45 39" fill="none" xmlns="http://www.w3.org/2000/svg">
<path fillRule="evenodd" clipRule="evenodd" d="M25.8016 18.8999C26.7162 18.5148 27.7271 18.3223 28.6898 18.5629C29.1759 18.6845 29.8583 19.1373 30.5079 19.5683C31.1448 19.991 31.7501 20.3926 32.1076 20.4403C32.4253 20.4827 32.8549 20.4598 33.2774 20.4373C33.815 20.4086 34.3412 20.3806 34.6107 20.4884C34.8237 20.5736 35.0272 20.8849 35.2505 21.2264C35.5319 21.6569 35.8448 22.1353 36.2474 22.2695C36.4171 22.3261 36.5974 22.3747 36.7689 22.4209C37.3275 22.5714 37.7936 22.697 37.499 22.9916C37.1139 23.3767 34.7551 23.6174 34.5144 23.5211C34.3917 23.472 34.4067 23.3478 34.4253 23.1932C34.4431 23.0446 34.4644 22.8679 34.37 22.7028C34.2797 22.5448 34.1048 22.2915 33.9395 22.0522C33.7522 21.7811 33.5773 21.5279 33.5517 21.4512C33.3591 21.3068 32.5408 21.1624 32.5408 21.3549C32.5408 21.5475 32.7815 22.9434 32.974 23.136C33.0031 23.1651 33.0322 23.1931 33.0596 23.2194C33.2138 23.3678 33.3155 23.4657 33.0703 23.4248C32.7815 23.3767 31.1448 22.7028 30.6153 22.1732C30.0858 21.6437 29.3156 20.9217 28.6417 20.9217C28.2678 20.9217 27.3459 22.0771 26.4593 23.1882C25.7477 24.0801 25.0588 24.9434 24.6944 25.1578C23.8761 25.6391 21.1804 26.7463 19.64 26.8426C18.0996 26.9389 16.2222 26.9389 16.1741 26.4575C16.1259 25.9761 16.3185 25.5429 17.0405 25.6391C17.7626 25.7354 23.6835 24.6283 25.3202 22.9434C25.6994 22.5531 26.0088 22.2429 26.258 21.993C27.0846 21.1643 27.2492 20.9992 27.1013 20.7773C27.0506 20.7013 26.9 20.5553 26.7151 20.3762C26.1974 19.8745 25.4114 19.1127 25.8016 18.8999ZM34.2232 21.4876C34.2243 21.5046 34.2256 21.5241 34.2256 21.5474C34.2256 21.6919 34.2737 21.7881 34.4181 21.8363C34.5625 21.8844 34.6588 21.6919 34.6107 21.5474C34.5625 21.403 34.5144 21.2586 34.4181 21.2586C34.2163 21.3797 34.2175 21.3993 34.2232 21.4876Z" fill="#7F7F7F"/>
<path d="M25.2242 14.423C25.9463 15.097 25.2242 18.1296 25.1761 18.3222C24.9585 19.1924 23.4322 18.5817 22.9621 17.8178C22.7097 17.4076 22.4989 16.9262 22.4804 16.4448C22.4323 15.1932 21.7102 13.9898 21.5176 13.4122C21.3251 12.8345 18.9182 11.9199 17.8111 11.6311C16.7039 11.3423 16.5113 9.27234 16.6558 8.98352C16.8002 8.69469 20.8918 11.4867 22.4804 12.2087C24.0689 12.9308 24.5022 13.7491 25.2242 14.423Z" fill="#7F7F7F"/>
<path d="M15.9818 24.9651C15.6449 24.9651 15.4523 25.1576 15.0672 25.7834C14.65 26.345 13.7675 27.5067 13.575 27.6608C13.3343 27.8533 13.1417 27.4682 12.4678 27.4201C11.7939 27.372 11.1681 28.5273 10.8793 28.8642C10.5904 29.2012 12.179 29.2975 13.7675 28.5273C15.356 27.7571 16.2225 25.6871 16.3669 25.3502C16.5113 25.0132 16.3188 24.9651 15.9818 24.9651Z" fill="#7F7F7F"/>
<path d="M19.6402 13.3158C20.8918 13.8454 21.2287 14.6156 21.2769 15.819C21.3882 18.6025 21.6738 21.2699 19.1242 22.3923C17.2988 23.1958 15.4975 23.883 15.1634 24.0024C14.4895 24.243 14.0562 24.4837 13.7674 24.8688C13.4786 25.2539 13.9118 25.3502 14.1525 25.7353C14.3932 26.1204 13.4786 26.6018 12.6121 26.5536C11.7456 26.5055 10.5903 25.7834 10.5422 25.1576C10.4941 24.5319 12.8528 23.9061 13.7674 23.6654C14.682 23.4247 15.9817 22.125 16.8001 21.788C17.6184 21.4511 16.7038 21.6436 16.4631 21.4029C16.2224 21.1622 16.0299 20.0551 15.9817 19.5256C15.9336 18.9961 15.356 18.1296 15.1634 17.8889C14.9709 17.6482 17.5703 17.7926 17.6666 17.6001C17.7628 17.4075 15.9817 17.4557 14.8264 17.2631C13.6711 17.0706 13.1898 16.3004 13.0454 16.0597C12.9009 15.819 17.137 16.541 17.3777 16.3004C17.6184 16.0597 15.5966 16.0597 14.6339 15.8671C13.6711 15.6746 12.7084 15.482 12.227 15.1451C11.7456 14.8081 11.3124 13.9898 11.6975 14.1823C12.0826 14.3749 16.8001 15.2413 17.137 15.0488C17.474 14.8562 12.3233 13.7009 11.5531 13.4121C10.7829 13.1233 10.109 11.7754 10.0127 11.4866C9.91642 11.1978 11.1199 12.0643 11.6975 12.2568L11.6975 12.2568C12.2752 12.4494 16.3187 13.7972 16.8001 13.7009C17.2815 13.6047 12.7565 12.0161 11.4568 11.4866C10.1571 10.9571 9.77201 9.46484 9.67573 9.07975C9.57946 8.69465 10.7829 9.51298 11.4568 9.94622C12.1307 10.3795 18.3886 12.7863 19.6402 13.3158Z" fill="#7F7F7F"/>
</svg>
