<svg width="45" height="39" viewBox="0 0 45 39" fill="none" xmlns="http://www.w3.org/2000/svg">
<path d="M35.3894 15.2934C34.6192 15.2934 34.0897 15.3897 33.5601 15.5341C33.4639 15.3094 33.2039 14.8217 32.9344 14.6676C32.5974 14.4751 32.3567 13.5123 32.2123 13.416C32.0679 13.3198 31.0089 13.2716 30.9607 13.416C30.9126 13.5605 31.7309 15.2934 31.8272 15.4378C31.9235 15.5822 31.6828 15.5341 31.3458 15.5341C31.0089 15.5341 28.6501 14.5713 28.0244 14.3306C27.3986 14.09 25.9063 14.09 25.2805 14.1381C24.6547 14.1862 21.7665 16.1117 21.3814 16.2561C20.9963 16.4006 20.3705 14.9564 19.5522 14.09C18.7338 13.2235 19.0708 11.8756 18.9745 11.5387C18.8782 11.2017 18.445 11.1054 17.7229 11.1054C17.0009 11.1054 15.7012 11.635 15.0754 11.8756C14.4496 12.1163 11.5614 14.6676 11.4169 14.9564C11.2725 15.2453 10.8393 15.5341 10.4061 15.5341C9.97282 15.5341 9.10634 16.0155 8.76938 15.871C8.43242 15.7266 9.25075 14.9564 9.92468 14.4269C10.5986 13.8974 12.8129 12.1163 15.5086 10.8648C18.2043 9.61318 21.1888 10.0464 21.7665 10.0946C22.3441 10.1427 21.8146 10.4315 21.5258 10.4315C21.237 10.4315 20.1779 10.7685 19.841 11.635C19.504 12.5014 20.8519 14.4751 21.1888 14.5713C21.5258 14.6676 24.3178 13.6086 24.5103 13.416C24.7029 13.2235 23.2587 11.7312 23.2106 11.2499C23.1625 10.7685 23.2587 10.6722 23.7882 10.7685C24.3178 10.8648 27.6392 11.9238 28.265 12.1163C28.8908 12.3089 30.72 12.5496 31.1051 12.5496C31.4902 12.5496 32.9825 12.2607 33.7046 12.5496C34.4266 12.8384 34.6673 13.5123 34.8599 13.753C35.0524 13.9937 36.3521 14.09 36.7372 14.5713C37.1223 15.0527 36.1596 15.2934 35.3894 15.2934Z" fill="#7F7F7F"/>
<path d="M31.2978 22.4659C27.5912 20.059 25.425 15.486 25.0399 15.0527C23.9969 15.6143 21.8917 16.7761 21.8147 16.9301C21.7184 17.1226 24.029 19.8665 24.5104 20.5885C24.9918 21.3106 30.9608 26.365 31.2015 26.7501C31.4422 27.1352 33.5602 27.2796 33.8972 27.039C34.2342 26.7983 30.5757 24.8246 29.9499 24.3914C29.3241 23.9582 27.8319 22.4178 28.1207 22.5622C28.4095 22.7066 32.5494 25.7392 33.127 25.8355C33.7047 25.9318 36.4966 25.8837 36.8817 25.4023C37.2668 24.9209 35.0044 24.8728 31.2978 22.4659Z" fill="#7F7F7F"/>
<path d="M17.8672 11.9239C17.9154 13.3681 18.6856 15.0047 20.2741 16.7858C21.8626 18.5669 24.1251 21.3589 24.6546 22.0809C25.1841 22.803 28.5537 25.9801 29.1314 26.1726C29.709 26.3652 30.383 26.6058 30.2386 26.8465C30.0941 27.0872 28.5537 27.2798 27.6391 26.9909C26.7245 26.7021 23.2105 23.0437 22.6328 22.5142C22.5154 22.4065 22.41 22.2841 22.3167 22.157C22.9923 23.4449 23.9701 25.1511 24.6546 25.8357C25.7618 26.9428 27.928 27.8093 27.7835 27.9537C27.6391 28.0981 24.6065 27.9056 23.74 27.376C22.8735 26.8465 20.3704 22.1291 20.1778 21.7921C19.9853 21.4551 19.7927 21.07 19.8409 21.3589C19.889 21.6477 21.0443 25.0173 21.4294 25.6912C21.8145 26.3652 22.1996 27.1354 21.8145 26.9909C21.4294 26.8465 19.4558 25.6912 19.1669 25.1617C18.8781 24.6322 18.1561 20.8294 18.0598 21.1663C17.9635 21.5033 18.4449 24.2471 18.1561 24.1508C17.8672 24.0546 16.2787 23.0918 16.1343 22.3216C15.9899 21.5514 15.8936 20.2517 15.7973 20.5887C15.701 20.9256 15.6048 21.5996 15.3159 21.5996C15.0271 21.5996 13.4867 20.348 13.3904 20.1073C13.2942 19.8666 12.9572 19.9147 12.7165 19.7222C12.4758 19.5296 10.9354 17.7967 11.0317 17.219C11.128 16.6414 12.9572 14.3308 14.0644 13.5606C15.1715 12.7904 16.8082 11.9239 17.2414 11.9239C17.6747 11.9239 17.8432 11.587 17.8672 11.9239Z" fill="#7F7F7F"/>
</svg>
