<svg width="45" height="39" viewBox="0 0 45 39" fill="none" xmlns="http://www.w3.org/2000/svg">
<path fillRule="evenodd" clipRule="evenodd" d="M26.4047 17.9373C27.3194 17.5522 28.3302 17.3596 29.293 17.6003C29.7791 17.7218 30.4615 18.1747 31.111 18.6057C31.748 19.0283 32.3533 19.43 32.7107 19.4777C33.0285 19.52 33.4581 19.4971 33.8805 19.4746C34.4182 19.446 34.9443 19.418 35.2139 19.5258C35.4269 19.611 35.6304 19.9223 35.8537 20.2638C36.1351 20.6942 36.4479 21.1727 36.8506 21.3069C37.0202 21.3634 37.2006 21.412 37.3721 21.4583C37.9307 21.6088 38.3967 21.7343 38.1021 22.0289C37.717 22.414 35.3583 22.6547 35.1176 22.5585C34.9949 22.5094 35.0098 22.3852 35.0284 22.2306C35.0463 22.082 35.0676 21.9053 34.9732 21.7401C34.8829 21.5821 34.708 21.3289 34.5427 21.0896C34.3554 20.8185 34.1804 20.5652 34.1549 20.4885C33.9623 20.3441 33.144 20.1997 33.144 20.3923C33.144 20.5848 33.3847 21.9808 33.5772 22.1734C33.6063 22.2024 33.6354 22.2304 33.6628 22.2568C33.8169 22.4051 33.9187 22.503 33.6735 22.4622C33.3847 22.414 31.748 21.7401 31.2185 21.2106C30.689 20.6811 29.9188 19.959 29.2448 19.959C28.871 19.959 27.9491 21.1144 27.0625 22.2255C26.3509 23.1174 25.662 23.9808 25.2976 24.1951C24.4792 24.6765 21.7835 25.7837 20.2431 25.8799C18.7028 25.9762 16.8254 25.9762 16.7773 25.4948C16.7291 25.0135 16.9217 24.5802 17.6437 24.6765C18.3658 24.7728 24.2867 23.6656 25.9234 21.9808C26.3025 21.5905 26.612 21.2802 26.8612 21.0304C27.6878 20.2016 27.8524 20.0365 27.7045 19.8146C27.6538 19.7386 27.5032 19.5927 27.3183 19.4135C26.8006 18.9119 26.0145 18.1501 26.4047 17.9373ZM34.8264 20.5249C34.8275 20.5419 34.8288 20.5615 34.8288 20.5848C34.8288 20.7292 34.8769 20.8255 35.0213 20.8736C35.1657 20.9218 35.262 20.7292 35.2139 20.5848C35.1657 20.4404 35.1176 20.296 35.0213 20.296C34.8195 20.4171 34.8207 20.4366 34.8264 20.5249Z" fill="#7F7F7F"/>
<path d="M25.6813 15.059C26.4023 15.497 25.6813 17.4681 25.6332 17.5933C25.3183 18.4132 23.8532 17.7971 23.2936 17.1202C23.102 16.8884 22.9566 16.6307 22.9414 16.3731C22.8933 15.5596 22.5511 15.4602 22.3589 15.0848C22.1666 14.7093 19.3011 13.9221 18.1955 13.7344C17.0899 13.5466 16.8976 12.2013 17.0418 12.0136C17.186 11.8259 21.2719 13.6405 22.8581 14.1098C24.4444 14.5791 24.9603 14.621 25.6813 15.059Z" fill="#7F7F7F"/>
<path d="M16.5848 24.0024C16.2478 24.0024 16.0553 24.195 15.6702 24.8208C15.253 25.3824 14.3705 26.5441 14.1779 26.6981C13.9372 26.8907 13.7447 26.5056 13.0707 26.4575C12.3968 26.4093 11.771 27.5646 11.4822 27.9016C11.1934 28.2385 12.7819 28.3348 14.3705 27.5646C15.959 26.7944 16.8255 24.7245 16.9699 24.3875C17.1143 24.0506 16.9217 24.0024 16.5848 24.0024Z" fill="#7F7F7F"/>
<path d="M21.0006 15.7067C22.256 16.1594 22.594 16.8177 22.6423 17.8464C22.723 19.5653 22.9038 21.2214 21.3113 21.8734C19.1049 22.7768 16.313 23.6869 15.888 23.8163C15.212 24.022 14.7774 24.2278 14.4877 24.557C14.198 24.8862 14.6326 24.9684 14.874 25.2976C15.1154 25.6268 14.198 26.0383 13.3289 25.9971C12.4597 25.956 11.3009 25.3388 11.2526 24.8039C11.2043 24.2689 13.5703 23.734 14.4877 23.5283C15.4051 23.3225 16.7089 22.2115 17.5297 21.9235C18.3506 21.6355 17.4331 21.8 17.1917 21.5943C16.9503 21.3886 16.7571 20.4422 16.7089 19.9895C16.6815 19.7332 16.4839 19.3845 16.2825 19.0929C16.2457 19.0901 16.2088 19.0861 16.172 19.0809C15.0132 18.9163 14.5303 18.2579 14.3855 18.0522C14.2406 17.8464 18.4897 18.4637 18.7312 18.2579C18.9726 18.0522 16.9446 18.0522 15.9789 17.8876L15.9789 17.8876C15.0132 17.723 14.0475 17.5584 13.5646 17.2704C13.0817 16.9823 12.6472 16.2828 13.0335 16.4474C13.4197 16.612 18.1517 17.3527 18.4897 17.1881C18.8277 17.0235 13.6612 16.0359 12.8886 15.789C12.116 15.5422 11.44 14.39 11.3435 14.1431C11.2469 13.8962 12.454 14.6369 13.0335 14.8015C13.6129 14.9661 17.6689 16.1182 18.1517 16.0359C18.6346 15.9536 14.0957 14.5957 12.792 14.1431C11.4883 13.6905 11.102 12.4149 11.0055 12.0857C10.9089 11.7565 12.116 12.456 12.792 12.8264C13.468 13.1967 19.7452 15.2541 21.0006 15.7067Z" fill="#7F7F7F"/>
</svg>
