<svg width="45" height="39" viewBox="0 0 45 39" fill="none" xmlns="http://www.w3.org/2000/svg">
<path fillRule="evenodd" clipRule="evenodd" d="M26.4047 14.9373C27.3193 14.5522 28.3302 14.3596 29.293 14.6003C29.7791 14.7218 30.4615 15.1747 31.111 15.6057C31.748 16.0283 32.3532 16.43 32.7107 16.4777C33.0285 16.52 33.4581 16.4971 33.8805 16.4746C34.4182 16.446 34.9443 16.418 35.2139 16.5258C35.4268 16.611 35.6304 16.9223 35.8537 17.2638C36.1351 17.6942 36.4479 18.1727 36.8506 18.3069C37.0202 18.3634 37.2005 18.412 37.3721 18.4583C37.9307 18.6088 38.3967 18.7343 38.1021 19.0289C37.717 19.414 35.3583 19.6547 35.1176 19.5585C34.9949 19.5094 35.0098 19.3852 35.0284 19.2306C35.0463 19.082 35.0676 18.9053 34.9732 18.7401C34.8829 18.5821 34.708 18.3289 34.5426 18.0896C34.3554 17.8185 34.1804 17.5652 34.1549 17.4885C33.9623 17.3441 33.144 17.1997 33.144 17.3923C33.144 17.5848 33.3847 18.9808 33.5772 19.1734C33.6063 19.2024 33.6354 19.2304 33.6628 19.2568C33.8169 19.4051 33.9187 19.503 33.6735 19.4622C33.3847 19.414 31.748 18.7401 31.2185 18.2106C30.689 17.6811 29.9188 16.959 29.2448 16.959C28.871 16.959 27.9491 18.1144 27.0625 19.2255C26.3509 20.1174 25.662 20.9808 25.2976 21.1951C24.4792 21.6765 21.7835 22.7837 20.2431 22.8799C18.7027 22.9762 16.8254 22.9762 16.7772 22.4948C16.7291 22.0135 16.9217 21.5802 17.6437 21.6765C18.3658 21.7728 24.2867 20.6656 25.9234 18.9808C26.3025 18.5905 26.612 18.2802 26.8612 18.0304C27.6877 17.2016 27.8524 17.0365 27.7044 16.8146C27.6538 16.7386 27.5032 16.5927 27.3183 16.4135C26.8006 15.9119 26.0145 15.1501 26.4047 14.9373ZM34.8264 17.5249C34.8275 17.5419 34.8288 17.5615 34.8288 17.5848C34.8288 17.7292 34.8769 17.8255 35.0213 17.8736C35.1657 17.9218 35.262 17.7292 35.2139 17.5848C35.1657 17.4404 35.1176 17.296 35.0213 17.296C34.8195 17.4171 34.8207 17.4366 34.8264 17.5249Z" fill="#7F7F7F"/>
<path d="M25.6813 12.059C26.4023 12.497 25.6813 14.4681 25.6332 14.5933C25.3183 15.4132 23.8533 14.7971 23.2937 14.1202C23.102 13.8884 22.9566 13.6307 22.9414 13.3731C22.8933 12.5596 22.5511 12.4602 22.3589 12.0848C22.1666 11.7093 19.3011 10.9221 18.1955 10.7344C17.0899 10.5466 16.8976 9.2013 17.0418 9.01357C17.186 8.82585 21.2719 10.6405 22.8581 11.1098C24.4444 11.5791 24.9603 11.621 25.6813 12.059Z" fill="#7F7F7F"/>
<path d="M16.5848 21.0024C16.2478 21.0024 16.0553 21.195 15.6702 21.8208C15.253 22.3824 14.3704 23.5441 14.1779 23.6981C13.9372 23.8907 13.7447 23.5056 13.0707 23.4575C12.3968 23.4093 11.771 24.5646 11.4822 24.9016C11.1934 25.2385 12.7819 25.3348 14.3704 24.5646C15.959 23.7944 16.8255 21.7245 16.9699 21.3875C17.1143 21.0506 16.9217 21.0024 16.5848 21.0024Z" fill="#7F7F7F"/>
<path d="M21.0006 12.7067C22.256 13.1594 22.594 13.8177 22.6423 14.8464C22.723 16.5653 22.9038 18.2214 21.3113 18.8734C19.1049 19.7768 16.313 20.6869 15.888 20.8163C15.212 21.022 14.7774 21.2278 14.4877 21.557C14.198 21.8862 14.6326 21.9684 14.874 22.2976C15.1154 22.6268 14.198 23.0383 13.3289 22.9971C12.4597 22.956 11.3009 22.3388 11.2526 21.8039C11.2043 21.2689 13.5703 20.734 14.4877 20.5283C15.4052 20.3225 16.7089 19.2115 17.5297 18.9235C18.3506 18.6355 17.4331 18.8 17.1917 18.5943C16.9503 18.3886 16.7571 17.4422 16.7089 16.9895C16.6815 16.7332 16.4839 16.3845 16.2825 16.0929C16.2457 16.0901 16.2088 16.0861 16.172 16.0809C15.0132 15.9163 14.5303 15.2579 14.3855 15.0522C14.2406 14.8464 18.4897 15.4637 18.7312 15.2579C18.9726 15.0522 16.9446 15.0522 15.9789 14.8876L15.9789 14.8876C15.0132 14.723 14.0475 14.5584 13.5646 14.2704C13.0817 13.9823 12.6472 13.2828 13.0335 13.4474C13.4197 13.612 18.1517 14.3527 18.4897 14.1881C18.8277 14.0235 13.6612 13.0359 12.8886 12.789C12.116 12.5422 11.44 11.39 11.3435 11.1431C11.2469 10.8962 12.454 11.6369 13.0335 11.8015C13.6129 11.9661 17.6689 13.1182 18.1517 13.0359C18.6346 12.9536 14.0957 11.5957 12.792 11.1431C11.4883 10.6905 11.102 9.41489 11.0055 9.08571C10.9089 8.75652 12.116 9.45604 12.792 9.82637C13.468 10.1967 19.7452 12.2541 21.0006 12.7067Z" fill="#7F7F7F"/>
</svg>
