<svg width="45" height="39" viewBox="0 0 45 39" fill="none" xmlns="http://www.w3.org/2000/svg">
<path d="M35.3894 18.2934C34.6192 18.2934 34.0897 18.3897 33.5601 18.5341C33.4639 18.3094 33.2039 17.8217 32.9344 17.6676C32.5974 17.4751 32.3567 16.5123 32.2123 16.416C32.0679 16.3198 31.0089 16.2716 30.9607 16.416C30.9126 16.5605 31.7309 18.2934 31.8272 18.4378C31.9235 18.5822 31.6828 18.5341 31.3458 18.5341C31.0089 18.5341 28.6501 17.5713 28.0244 17.3306C27.3986 17.09 25.9063 17.09 25.2805 17.1381C24.6547 17.1862 21.7665 19.1117 21.3814 19.2561C20.9963 19.4006 20.3705 17.9564 19.5522 17.09C18.7338 16.2235 19.0708 14.8756 18.9745 14.5387C18.8782 14.2017 18.445 14.1054 17.7229 14.1054C17.0009 14.1054 15.7012 14.635 15.0754 14.8756C14.4496 15.1163 11.5614 17.6676 11.4169 17.9564C11.2725 18.2453 10.8393 18.5341 10.4061 18.5341C9.97282 18.5341 9.10634 19.0155 8.76938 18.871C8.43242 18.7266 9.25075 17.9564 9.92468 17.4269C10.5986 16.8974 12.8129 15.1163 15.5086 13.8648C18.2043 12.6132 21.1888 13.0464 21.7665 13.0946C22.3441 13.1427 21.8146 13.4315 21.5258 13.4315C21.237 13.4315 20.1779 13.7685 19.841 14.635C19.504 15.5014 20.8519 17.4751 21.1888 17.5713C21.5258 17.6676 24.3178 16.6086 24.5103 16.416C24.7029 16.2235 23.2587 14.7312 23.2106 14.2499C23.1625 13.7685 23.2587 13.6722 23.7882 13.7685C24.3178 13.8648 27.6392 14.9238 28.265 15.1163C28.8908 15.3089 30.72 15.5496 31.1051 15.5496C31.4902 15.5496 32.9825 15.2607 33.7046 15.5496C34.4266 15.8384 34.6673 16.5123 34.8599 16.753C35.0524 16.9937 36.3521 17.09 36.7372 17.5713C37.1223 18.0527 36.1596 18.2934 35.3894 18.2934Z" fill="#7F7F7F"/>
<path d="M31.4154 22.2872C27.7364 20.8953 25.5864 18.2506 25.2041 18C24.1689 18.3248 22.0793 18.9966 22.0029 19.0857C21.9073 19.1971 24.2008 20.7839 24.6785 21.2015C25.1563 21.6191 31.081 24.5422 31.3199 24.7649C31.5588 24.9876 33.6611 25.0711 33.9955 24.9319C34.33 24.7928 30.6987 23.6513 30.0776 23.4008C29.4565 23.1502 27.9753 22.2594 28.262 22.3429C28.5487 22.4264 32.6577 24.1803 33.231 24.236C33.8044 24.2916 36.5756 24.2638 36.9578 23.9854C37.3401 23.707 35.0944 23.6792 31.4154 22.2872Z" fill="#7F7F7F"/>
<path d="M17.7577 15.1015C17.8053 16.0805 18.5662 17.1901 20.1357 18.3975C21.7051 19.605 23.9404 21.4977 24.4636 21.9872C24.9867 22.4767 28.3159 24.6306 28.8866 24.7611C29.4573 24.8916 30.1231 25.0548 29.9804 25.218C29.8378 25.3811 28.3159 25.5117 27.4122 25.3159C26.5086 25.1201 23.0368 22.6399 22.4661 22.2809C22.35 22.2079 22.2459 22.125 22.1537 22.0388C22.8212 22.9119 23.7872 24.0686 24.4636 24.5327C25.5574 25.2832 27.6976 25.8706 27.5549 25.9685C27.4122 26.0664 24.416 25.9359 23.5599 25.5769C22.7039 25.218 20.2308 22.0199 20.0405 21.7914C19.8503 21.563 19.6601 21.3019 19.7076 21.4977C19.7552 21.6935 20.8966 23.9779 21.2771 24.4348C21.6576 24.8916 22.038 25.4138 21.6576 25.3159C21.2771 25.218 19.3272 24.4348 19.0418 24.0758C18.7564 23.7168 18.0431 21.1388 17.9479 21.3672C17.8528 21.5956 18.3284 23.4557 18.0431 23.3905C17.7577 23.3252 16.1882 22.6725 16.0456 22.1504C15.9029 21.6283 15.8078 20.7471 15.7126 20.9756C15.6175 21.204 15.5224 21.6609 15.2371 21.6609C14.9517 21.6609 13.4298 20.8124 13.3347 20.6492C13.2396 20.4861 12.9066 20.5187 12.6688 20.3882C12.4311 20.2576 10.9092 19.0828 11.0043 18.6912C11.0994 18.2996 12.9066 16.7332 14.0005 16.2111C15.0944 15.6889 16.7114 15.1015 17.1394 15.1015C17.5675 15.1015 17.734 14.8731 17.7577 15.1015Z" fill="#7F7F7F"/>
</svg>
