<svg width="44" height="44" viewBox="0 0 44 44" fill="none" xmlns="http://www.w3.org/2000/svg">
<path d="M31.5786 21.0347C31.7873 21.4941 31.9198 21.9851 31.974 22.486C32.0262 22.987 32.0001 23.4938 31.8917 23.9869C31.7853 24.4799 31.6006 24.9531 31.3437 25.3887C31.175 25.6797 30.9763 25.953 30.7474 26.2044C30.5206 26.4539 30.2676 26.6796 29.9926 26.8776C29.7156 27.0756 29.4205 27.2419 29.1073 27.3785C28.7961 27.5132 28.4709 27.6161 28.1376 27.6835C27.9811 28.1626 27.7482 28.616 27.4471 29.0239C27.1479 29.4318 26.7846 29.7902 26.371 30.0852C25.9575 30.3822 25.4997 30.6118 25.0139 30.7663C24.5281 30.9227 24.0202 30.9999 23.5083 30.9999C23.169 31.0019 22.8277 30.9663 22.4945 30.8989C22.1632 30.8296 21.838 30.7247 21.5268 30.5881C21.2157 30.4515 20.9206 30.2812 20.6455 30.0832C20.3725 29.8852 20.1195 29.6575 19.8947 29.406C19.3928 29.513 18.8789 29.5387 18.371 29.4872C17.8631 29.4338 17.3652 29.3031 16.8974 29.0972C16.4317 28.8932 16.0001 28.616 15.6207 28.2775C15.2412 27.9389 14.918 27.5429 14.6631 27.1073C14.4924 26.8162 14.3519 26.5093 14.2455 26.1906C14.1391 25.8718 14.0688 25.5431 14.0327 25.2085C13.9966 24.8759 13.9986 24.5393 14.0347 24.2046C14.0708 23.872 14.1451 23.5433 14.2515 23.2246C13.9102 22.8503 13.6292 22.4247 13.4204 21.9653C13.2136 21.504 13.0791 21.0149 13.0269 20.514C12.9727 20.013 13.0008 19.5062 13.1072 19.0132C13.2136 18.5201 13.3983 18.0469 13.6553 17.6113C13.8239 17.3203 14.0227 17.0451 14.2495 16.7956C14.4764 16.5461 14.7313 16.3204 15.0063 16.1224C15.2814 15.9244 15.5785 15.7561 15.8897 15.6215C16.2028 15.4848 16.5281 15.3839 16.8613 15.3165C17.0179 14.8354 17.2508 14.384 17.5499 13.9761C17.851 13.5682 18.2144 13.2098 18.6279 12.9129C19.0415 12.6178 19.4992 12.3882 19.985 12.2317C20.4709 12.0773 20.9788 11.9981 21.4907 12.0001C21.83 11.9981 22.1712 12.0318 22.5045 12.1011C22.8377 12.1704 23.163 12.2733 23.4741 12.4099C23.7853 12.5485 24.0804 12.7168 24.3554 12.9148C24.6305 13.1148 24.8834 13.3405 25.1083 13.592C25.6081 13.487 26.1221 13.4613 26.63 13.5128C27.1379 13.5643 27.6338 13.6969 28.1015 13.9009C28.5673 14.1068 28.9989 14.382 29.3783 14.7206C29.7577 15.0572 30.0809 15.4512 30.3359 15.8888C30.5065 16.1778 30.6471 16.4847 30.7535 16.8055C30.8599 17.1243 30.9321 17.4529 30.9663 17.7875C31.0024 18.1222 31.0024 18.4588 30.9643 18.7934C30.9281 19.128 30.8538 19.4567 30.7474 19.7754C31.0907 20.1497 31.3698 20.5734 31.5786 21.0347ZM24.8895 29.4872C25.3271 29.309 25.7246 29.0457 26.0598 28.715C26.3951 28.3844 26.6621 27.9923 26.8428 27.5587C27.0235 27.1271 27.1178 26.6638 27.1178 26.1965V21.7812C27.1165 21.7772 27.1151 21.7726 27.1138 21.7673C27.1125 21.7633 27.1105 21.7594 27.1078 21.7554C27.1051 21.7515 27.1018 21.7482 27.0977 21.7455C27.0937 21.7416 27.0897 21.7389 27.0857 21.7376L25.4656 20.8149V26.149C25.4656 26.2024 25.4576 26.2579 25.4435 26.3094C25.4295 26.3628 25.4094 26.4123 25.3813 26.4598C25.3532 26.5074 25.3211 26.5509 25.2809 26.5885C25.2419 26.6269 25.198 26.6602 25.1504 26.6875L21.314 28.8714C21.2819 28.8912 21.2277 28.919 21.1996 28.9348C21.3582 29.0675 21.5308 29.1843 21.7115 29.2872C21.8942 29.3902 22.0829 29.4773 22.2797 29.5486C22.4764 29.6179 22.6792 29.6714 22.8839 29.707C23.0907 29.7426 23.2995 29.7605 23.5083 29.7605C23.982 29.7605 24.4518 29.6674 24.8895 29.4872ZM15.7532 26.4895C15.992 26.8954 16.3072 27.2479 16.6826 27.533C17.0601 27.8181 17.4877 28.026 17.9454 28.1468C18.4031 28.2676 18.8809 28.2992 19.3507 28.2379C19.8204 28.1765 20.2721 28.026 20.6837 27.7924L24.5622 25.5847L24.5723 25.5748C24.5749 25.5722 24.5769 25.5682 24.5783 25.5629C24.581 25.559 24.583 25.555 24.5843 25.551V23.6899L19.9027 26.3608C19.8545 26.3886 19.8044 26.4084 19.7522 26.4242C19.698 26.4381 19.6438 26.444 19.5875 26.444C19.5333 26.444 19.4791 26.4381 19.4249 26.4242C19.3727 26.4084 19.3205 26.3886 19.2724 26.3608L15.436 24.1749C15.4018 24.1551 15.3516 24.1254 15.3235 24.1076C15.2874 24.3116 15.2693 24.5175 15.2693 24.7234C15.2693 24.9293 15.2894 25.1352 15.3255 25.3392C15.3617 25.5411 15.4179 25.7411 15.4882 25.9351C15.5604 26.1292 15.6488 26.3153 15.7532 26.4935V26.4895ZM14.7454 18.233C14.5085 18.6389 14.3559 19.0864 14.2937 19.5497C14.2314 20.013 14.2636 20.4823 14.386 20.9357C14.5085 21.3871 14.7193 21.8089 15.0084 22.1811C15.2974 22.5514 15.6568 22.8622 16.0663 23.0959L19.9429 25.3055C19.9469 25.3068 19.9516 25.3082 19.9569 25.3095H19.971C19.9763 25.3095 19.981 25.3082 19.985 25.3055C19.9891 25.3042 19.9931 25.3022 19.9971 25.2996L21.6232 24.3729L16.9416 21.7079C16.8954 21.6802 16.8513 21.6465 16.8111 21.6089C16.7722 21.5704 16.7385 21.5272 16.7107 21.4802C16.6846 21.4327 16.6626 21.3832 16.6485 21.3297C16.6345 21.2782 16.6264 21.2248 16.6284 21.1693V16.6728C16.4317 16.7441 16.241 16.8312 16.0603 16.9342C15.8796 17.0391 15.709 17.1579 15.5484 17.2906C15.3898 17.4232 15.2412 17.5698 15.1067 17.7282C14.9722 17.8846 14.8538 18.0548 14.7494 18.233H14.7454ZM28.0614 21.2901C28.1095 21.3178 28.1537 21.3495 28.1939 21.3891C28.232 21.4267 28.2661 21.4703 28.2942 21.5178C28.3203 21.5653 28.3424 21.6168 28.3565 21.6683C28.3685 21.7218 28.3765 21.7752 28.3745 21.8307V26.3272C29.019 26.0935 29.5811 25.6837 29.9966 25.1451C30.4142 24.6066 30.6651 23.9631 30.7234 23.2899C30.7816 22.6167 30.6451 21.9396 30.3279 21.3396C30.0107 20.7397 29.5269 20.2407 28.9326 19.9041L25.0561 17.6945C25.0521 17.6932 25.0474 17.6919 25.042 17.6905H25.028C25.024 17.6919 25.0193 17.6932 25.0139 17.6945C25.0099 17.6958 25.0059 17.6978 25.0019 17.7004L23.3838 18.6231L28.0654 21.2901H28.0614ZM29.6774 18.8944H29.6754V18.8963L29.6774 18.8944ZM29.6754 18.8924C29.7919 18.2271 29.7136 17.542 29.4486 16.9183C29.1856 16.2946 28.7459 15.7581 28.1838 15.37C27.6217 14.9839 26.9592 14.7621 26.2747 14.7324C25.5881 14.7047 24.9095 14.8691 24.3153 15.2057L20.4387 17.4133C20.4347 17.416 20.4314 17.4193 20.4287 17.4232L20.4207 17.4351C20.4193 17.4391 20.418 17.4437 20.4167 17.449C20.4153 17.4529 20.4147 17.4576 20.4147 17.4628V19.3082L25.0962 16.6411C25.1444 16.6134 25.1966 16.5936 25.2488 16.5778C25.303 16.5639 25.3572 16.558 25.4114 16.558C25.4676 16.558 25.5218 16.5639 25.576 16.5778C25.6282 16.5936 25.6784 16.6134 25.7266 16.6411L29.563 18.827C29.5971 18.8468 29.6473 18.8746 29.6754 18.8924ZM19.5313 16.849C19.5313 16.7956 19.5394 16.7421 19.5534 16.6887C19.5675 16.6372 19.5875 16.5857 19.6157 16.5382C19.6438 16.4926 19.6759 16.4491 19.716 16.4095C19.7542 16.3719 19.7983 16.3382 19.8465 16.3125L23.6829 14.1286C23.7191 14.1068 23.7692 14.0791 23.7974 14.0652C23.2714 13.6316 22.629 13.3544 21.9484 13.2692C21.2679 13.1821 20.5773 13.289 19.9569 13.5761C19.3346 13.8632 18.8086 14.3206 18.4412 14.8908C18.0739 15.4631 17.8791 16.1244 17.8791 16.8015V21.2169C17.8805 21.2221 17.8818 21.2268 17.8831 21.2307C17.8845 21.2347 17.8865 21.2386 17.8892 21.2426C17.8918 21.2466 17.8952 21.2505 17.8992 21.2545C17.9019 21.2571 17.9059 21.2598 17.9113 21.2624L19.5313 22.1851V16.849ZM20.4106 22.684L22.4965 23.872L24.5823 22.684V20.31L22.4985 19.1221L20.4126 20.31L20.4106 22.684Z" fill="white"/>
</svg>
